<svg data-logo="logo" xmlns="http://www.w3.org/2000/svg" viewBox="0 0 319 43">
        <g style="opacity: 1;" id="logogram" transform="translate(0, 1) rotate(0)"><path d="M35.5 0.5C45.9934 0.5 54.5 9.00659 54.5 19.5V40.5C50.0817 40.5 46.5 36.9183 46.5 32.5V19.5C46.5 13.4249 41.5751 8.5 35.5 8.5H30.2988C27.6467 8.50004 25.1029 9.55339 23.2275 11.4287L9.67188 24.9854C8.92179 25.7354 8.50006 26.7527 8.5 27.8135V28.5C8.5 30.7091 10.2909 32.5 12.5 32.5H30.5C30.5 36.7801 27.1389 40.2748 22.9121 40.4893L22.5 40.5H12.5C5.87259 40.5 0.5 35.1274 0.5 28.5V27.8135C0.500062 24.631 1.76427 21.5785 4.01465 19.3281L17.5713 5.77246C20.9469 2.39685 25.525 0.500044 30.2988 0.5H35.5Z" fill="#FF500B"></path><path d="M37.5 12.5C40.2614 12.5 42.5 14.7386 42.5 17.5V40.5C38.0817 40.5 34.5 36.9183 34.5 32.5V20.5H31.1562L24.6207 27.0355C23.683 27.9732 22.4113 28.5 21.0852 28.5H12.9775C12.5588 28.5 12.3491 27.9937 12.6452 27.6976L26.3789 13.9648C27.3165 13.0272 28.588 12.5 29.9141 12.5H37.5Z" fill="#FF500B"></path></g>
        <g style="opacity: 1;" id="logotype" transform="translate(61, 8)"><path fill="#ffffff" d="M19.06 27L8.31 27L8.31 1.54L18.41 1.54Q21.21 1.54 23.08 2.38Q24.95 3.23 25.88 4.70Q26.82 6.17 26.82 8.08L26.82 8.08Q26.82 9.59 26.22 10.70Q25.62 11.82 24.59 12.53Q23.55 13.24 22.24 13.55L22.24 13.55L22.24 13.81Q23.67 13.86 24.94 14.62Q26.22 15.38 27.01 16.74Q27.81 18.10 27.81 19.99L27.81 19.99Q27.81 21.99 26.82 23.58Q25.82 25.17 23.88 26.09Q21.94 27 19.06 27L19.06 27ZM13.52 15.81L13.52 22.71L18.03 22.71Q20.32 22.71 21.38 21.82Q22.44 20.93 22.44 19.50L22.44 19.50Q22.44 18.40 21.92 17.57Q21.40 16.75 20.44 16.28Q19.48 15.81 18.17 15.81L18.17 15.81L13.52 15.81ZM13.52 5.79L13.52 12.23L17.64 12.23Q18.75 12.23 19.64 11.83Q20.53 11.43 21.03 10.69Q21.53 9.94 21.53 8.92L21.53 8.92Q21.53 7.53 20.55 6.66Q19.57 5.79 17.74 5.79L17.74 5.79L13.52 5.79ZM34.40 27.38L34.40 27.38Q32.59 27.38 31.15 26.74Q29.70 26.09 28.87 24.82Q28.04 23.55 28.04 21.65L28.04 21.65Q28.04 20.06 28.63 18.98Q29.22 17.91 30.24 17.26Q31.26 16.61 32.55 16.27Q33.84 15.93 35.26 15.79L35.26 15.79Q36.91 15.62 37.93 15.47Q38.95 15.33 39.42 15.01Q39.89 14.70 39.89 14.08L39.89 14.08L39.89 13.99Q39.89 13.17 39.55 12.61Q39.20 12.05 38.54 11.75Q37.87 11.45 36.90 11.45L36.90 11.45Q35.91 11.45 35.17 11.75Q34.44 12.05 33.97 12.54Q33.51 13.04 33.29 13.65L33.29 13.65L28.59 12.87Q29.09 11.21 30.23 10.05Q31.38 8.88 33.08 8.27Q34.78 7.65 36.90 7.65L36.90 7.65Q38.45 7.65 39.90 8.02Q41.36 8.39 42.51 9.16Q43.66 9.93 44.34 11.16Q45.01 12.39 45.01 14.13L45.01 14.13L45.01 27L40.16 27L40.16 24.35L39.99 24.35Q39.53 25.24 38.76 25.91Q37.99 26.59 36.90 26.98Q35.82 27.38 34.40 27.38ZM35.85 23.77L35.85 23.77Q37.07 23.77 37.98 23.29Q38.90 22.81 39.41 21.99Q39.92 21.17 39.92 20.16L39.92 20.16L39.92 18.10Q39.70 18.27 39.24 18.40Q38.78 18.54 38.21 18.64Q37.65 18.75 37.10 18.83Q36.55 18.92 36.13 18.97L36.13 18.97Q35.19 19.10 34.47 19.41Q33.75 19.72 33.36 20.22Q32.97 20.73 32.97 21.51L32.97 21.51Q32.97 22.25 33.34 22.75Q33.72 23.26 34.36 23.51Q35.00 23.77 35.85 23.77ZM52.24 15.94L52.24 15.94L52.24 27L47.11 27L47.11 7.89L51.95 7.89L52.04 12.66L51.73 12.66Q52.48 10.27 54.01 8.96Q55.54 7.65 57.97 7.65L57.97 7.65Q59.95 7.65 61.42 8.52Q62.89 9.38 63.71 11.00Q64.53 12.61 64.53 14.85L64.53 14.85L64.53 27L59.40 27L59.40 15.74Q59.40 13.96 58.49 12.95Q57.57 11.94 55.95 11.94L55.95 11.94Q54.87 11.94 54.03 12.41Q53.18 12.88 52.71 13.77Q52.24 14.66 52.24 15.94ZM74.76 17.48L71.28 21.41L71.28 15.24L72.05 15.24L78.30 7.89L84.23 7.89L75.98 17.48L74.76 17.48ZM71.76 27L66.63 27L66.63 1.54L71.76 1.54L71.76 27ZM84.59 27L78.56 27L72.82 18.63L76.25 14.99L84.59 27ZM99.21 27.38L99.21 27.38Q96.34 27.38 94.24 26.14Q92.14 24.90 91.00 22.68Q89.87 20.47 89.87 17.53L89.87 17.53Q89.87 14.56 91.00 12.35Q92.14 10.13 94.24 8.89Q96.34 7.65 99.21 7.65L99.21 7.65Q102.10 7.65 104.20 8.89Q106.29 10.13 107.43 12.35Q108.56 14.56 108.56 17.53L108.56 17.53Q108.56 20.47 107.43 22.68Q106.29 24.90 104.20 26.14Q102.10 27.38 99.21 27.38ZM99.21 23.34L99.21 23.34Q100.58 23.34 101.50 22.58Q102.43 21.82 102.89 20.50Q103.35 19.17 103.35 17.52L103.35 17.52Q103.35 15.82 102.89 14.51Q102.43 13.19 101.50 12.44Q100.58 11.69 99.21 11.69L99.21 11.69Q97.85 11.69 96.93 12.44Q96.02 13.19 95.56 14.51Q95.10 15.82 95.10 17.52L95.10 17.52Q95.10 19.17 95.56 20.50Q96.02 21.82 96.93 22.58Q97.85 23.34 99.21 23.34ZM108.01 7.89L120.49 7.89L120.49 11.81L108.01 11.81L108.01 7.89ZM116.49 27L111.38 27L111.38 6.42Q111.38 4.39 112.19 3.04Q113.00 1.69 114.41 1.01Q115.81 0.34 117.58 0.34L117.58 0.34Q118.80 0.34 119.80 0.54Q120.80 0.73 121.26 0.87L121.26 0.87L120.34 4.73Q120.01 4.65 119.58 4.56Q119.14 4.48 118.63 4.48L118.63 4.48Q117.46 4.48 116.98 5.03Q116.49 5.59 116.49 6.59L116.49 6.59L116.49 27ZM138.19 13.82L131.49 21.24L131.49 16.49Q132.28 15.07 133.03 13.88Q133.78 12.68 134.69 11.47Q135.59 10.27 136.76 8.85L136.76 8.85L142.99 1.54L149.37 1.54L138.62 13.98L138.19 13.82ZM132.86 27L127.65 27L127.65 1.54L132.86 1.54L132.86 8.49L132.76 14.99L132.86 17.53L132.86 27ZM149.64 27L143.47 27L135.92 15.52L139.22 11.62L149.64 27ZM155.55 15.94L155.55 15.94L155.55 27L150.42 27L150.42 1.54L155.45 1.54L155.45 12.66L155.04 12.66Q155.79 10.27 157.32 8.96Q158.85 7.65 161.28 7.65L161.28 7.65Q163.26 7.65 164.74 8.52Q166.22 9.38 167.03 11.00Q167.84 12.61 167.84 14.85L167.84 14.85L167.84 27L162.71 27L162.71 15.74Q162.71 13.96 161.80 12.95Q160.88 11.94 159.26 11.94L159.26 11.94Q158.18 11.94 157.34 12.41Q156.49 12.88 156.02 13.77Q155.55 14.66 155.55 15.94ZM175.27 27.38L175.27 27.38Q173.46 27.38 172.02 26.74Q170.57 26.09 169.74 24.82Q168.91 23.55 168.91 21.65L168.91 21.65Q168.91 20.06 169.50 18.98Q170.09 17.91 171.11 17.26Q172.13 16.61 173.42 16.27Q174.71 15.93 176.13 15.79L176.13 15.79Q177.78 15.62 178.80 15.47Q179.82 15.33 180.29 15.01Q180.76 14.70 180.76 14.08L180.76 14.08L180.76 13.99Q180.76 13.17 180.42 12.61Q180.07 12.05 179.41 11.75Q178.74 11.45 177.77 11.45L177.77 11.45Q176.78 11.45 176.04 11.75Q175.31 12.05 174.84 12.54Q174.38 13.04 174.16 13.65L174.16 13.65L169.46 12.87Q169.96 11.21 171.10 10.05Q172.25 8.88 173.95 8.27Q175.65 7.65 177.77 7.65L177.77 7.65Q179.32 7.65 180.77 8.02Q182.23 8.39 183.38 9.16Q184.53 9.93 185.21 11.16Q185.88 12.39 185.88 14.13L185.88 14.13L185.88 27L181.03 27L181.03 24.35L180.86 24.35Q180.40 25.24 179.63 25.91Q178.86 26.59 177.78 26.98Q176.69 27.38 175.27 27.38ZM176.72 23.77L176.72 23.77Q177.94 23.77 178.85 23.29Q179.77 22.81 180.28 21.99Q180.79 21.17 180.79 20.16L180.79 20.16L180.79 18.10Q180.57 18.27 180.11 18.40Q179.65 18.54 179.08 18.64Q178.52 18.75 177.97 18.83Q177.42 18.92 177.00 18.97L177.00 18.97Q176.06 19.10 175.34 19.41Q174.62 19.72 174.23 20.22Q173.84 20.73 173.84 21.51L173.84 21.51Q173.84 22.25 174.21 22.75Q174.59 23.26 175.23 23.51Q175.87 23.77 176.72 23.77ZM193.11 27L187.98 27L187.98 7.89L192.94 7.89L192.94 11.23L193.15 11.23Q193.68 9.45 194.91 8.54Q196.15 7.64 197.76 7.64L197.76 7.64Q198.15 7.64 198.61 7.68Q199.06 7.72 199.42 7.81L199.42 7.81L199.42 12.39Q199.08 12.27 198.43 12.20Q197.78 12.13 197.20 12.13L197.20 12.13Q196.03 12.13 195.09 12.64Q194.15 13.14 193.63 14.04Q193.11 14.93 193.11 16.13L193.11 16.13L193.11 27ZM198.12 7.89L209.45 7.89L209.45 11.81L198.12 11.81L198.12 7.89ZM200.75 21.86L200.75 3.35L205.88 3.35L205.88 21.41Q205.88 22.32 206.28 22.75Q206.68 23.19 207.62 23.19L207.62 23.19Q207.91 23.19 208.44 23.11Q208.97 23.04 209.24 22.97L209.24 22.97L209.98 26.81Q209.12 27.07 208.28 27.17Q207.43 27.27 206.66 27.27L206.66 27.27Q203.79 27.27 202.27 25.87Q200.75 24.47 200.75 21.86L200.75 21.86ZM219.05 27.38L219.05 27.38Q216.18 27.38 214.08 26.14Q211.97 24.90 210.84 22.68Q209.70 20.47 209.70 17.53L209.70 17.53Q209.70 14.56 210.84 12.35Q211.97 10.13 214.08 8.89Q216.18 7.65 219.05 7.65L219.05 7.65Q221.94 7.65 224.03 8.89Q226.12 10.13 227.26 12.35Q228.40 14.56 228.40 17.53L228.40 17.53Q228.40 20.47 227.26 22.68Q226.12 24.90 224.03 26.14Q221.94 27.38 219.05 27.38ZM219.05 23.34L219.05 23.34Q220.42 23.34 221.34 22.58Q222.26 21.82 222.72 20.50Q223.19 19.17 223.19 17.52L223.19 17.52Q223.19 15.82 222.72 14.51Q222.26 13.19 221.34 12.44Q220.42 11.69 219.05 11.69L219.05 11.69Q217.68 11.69 216.77 12.44Q215.85 13.19 215.39 14.51Q214.93 15.82 214.93 17.52L214.93 17.52Q214.93 19.17 215.39 20.50Q215.85 21.82 216.77 22.58Q217.68 23.34 219.05 23.34ZM234.82 27L229.69 27L229.69 7.89L234.45 7.89L234.70 12.64L234.33 12.64Q234.77 10.88 235.63 9.77Q236.50 8.66 237.66 8.13Q238.82 7.60 240.10 7.60L240.10 7.60Q242.17 7.60 243.43 8.91Q244.70 10.22 245.30 12.95L245.30 12.95L244.70 12.95Q245.13 11.12 246.09 9.94Q247.06 8.75 248.38 8.18Q249.71 7.60 251.16 7.60L251.16 7.60Q252.92 7.60 254.30 8.37Q255.67 9.14 256.47 10.59Q257.26 12.03 257.26 14.11L257.26 14.11L257.26 27L252.13 27L252.13 15.09Q252.13 13.46 251.25 12.68Q250.37 11.89 249.09 11.89L249.09 11.89Q248.13 11.89 247.43 12.31Q246.72 12.73 246.33 13.48Q245.95 14.23 245.95 15.24L245.95 15.24L245.95 27L240.99 27L240.99 14.95Q240.99 13.55 240.16 12.72Q239.33 11.89 238.02 11.89L238.02 11.89Q237.11 11.89 236.39 12.30Q235.66 12.71 235.24 13.51Q234.82 14.30 234.82 15.45L234.82 15.45L234.82 27Z"></path></g>
        
      </svg>