
      <svg data-logo="logo" xmlns="http://www.w3.org/2000/svg" viewBox="0 0 257 42">
        <g id="logogram" transform="translate(0, 1) rotate(0) "><path d="M3.30396 17.1323C3.71066 15.3021 5.33391 14 7.20871 14H12L8.00002 32H4.98649C2.4275 32 0.526616 29.6303 1.08174 27.1323L3.30396 17.1323Z" fill="#FFC228"/><path d="M39.2852 8H21.2861L20.6777 10.8384C20.2824 12.6825 18.6526 14 16.7666 14H12L14.3216 3.16214C14.7167 1.31774 16.3467 0 18.2329 0H36.0513C38.5978 0 40.496 2.34793 39.9626 4.83792L39.2852 8Z" fill="#FB315D"/><path d="M30.9627 36.8379C30.5676 38.6823 28.9377 40 27.0514 40H11.233C8.68648 40 6.78828 37.6521 7.32172 35.1621L7.99914 32H31.9991L30.9627 36.8379Z" fill="#07E0B0"/><path d="M38.6269 17C41.2292 17 43.1386 19.4456 42.5075 21.9701L40.7575 28.9701C40.3123 30.7508 38.7124 32 36.8769 32H32L33.75 25H14L15.0364 20.1621C15.4316 18.3177 17.0615 17 18.9477 17H38.6269Z" fill="#6F3BFD"/></g>
        <g id="logotype" transform="translate(49, 7.5)"><path fill="#ffffff" d="M25.38 27L8.31 27L8.31 1.54L25.35 1.54L25.35 5.86L13.52 5.86L13.52 12.01L24.44 12.01L24.44 16.27L13.52 16.27L13.52 22.68L25.38 22.68L25.38 27ZM27.17 1.54L32.30 1.54L32.30 27L27.17 27L27.17 1.54ZM45.85 27L40.52 27L40.52 1.54L46.33 1.54L54.38 14.42Q54.99 15.41 55.62 16.58Q56.26 17.74 56.91 19.16Q57.57 20.57 58.22 22.35L58.22 22.35L57.69 22.35Q57.57 20.93 57.48 19.33Q57.38 17.72 57.31 16.25Q57.25 14.78 57.25 13.76L57.25 13.76L57.25 1.54L62.58 1.54L62.58 27L56.75 27L49.44 15.31Q48.63 13.99 47.95 12.76Q47.27 11.52 46.52 10.01Q45.78 8.51 44.75 6.44L44.75 6.44L45.42 6.44Q45.52 8.29 45.63 9.98Q45.73 11.67 45.79 13.05Q45.85 14.42 45.85 15.29L45.85 15.29L45.85 27ZM69.92 27L64.80 27L64.80 7.89L69.92 7.89L69.92 27ZM67.36 5.40L67.36 5.40Q66.20 5.40 65.38 4.63Q64.56 3.86 64.56 2.77L64.56 2.77Q64.56 1.67 65.38 0.90Q66.20 0.13 67.36 0.13L67.36 0.13Q68.52 0.13 69.35 0.90Q70.18 1.66 70.18 2.77L70.18 2.77Q70.18 3.86 69.35 4.63Q68.52 5.40 67.36 5.40ZM72.01 1.54L77.13 1.54L77.13 27L72.01 27L72.01 1.54ZM87.85 27.38L87.85 27.38Q84.93 27.38 82.81 26.18Q80.69 24.98 79.55 22.78Q78.41 20.57 78.41 17.55L78.41 17.55Q78.41 14.59 79.54 12.37Q80.67 10.15 82.74 8.90Q84.81 7.65 87.59 7.65L87.59 7.65Q89.47 7.65 91.10 8.25Q92.72 8.85 93.95 10.06Q95.18 11.26 95.87 13.07Q96.56 14.88 96.56 17.34L96.56 17.34L96.56 18.78L80.52 18.78L80.52 15.57L94.05 15.57L91.66 16.42Q91.66 14.93 91.21 13.83Q90.75 12.73 89.86 12.12Q88.96 11.52 87.63 11.52L87.63 11.52Q86.31 11.52 85.38 12.13Q84.45 12.75 83.97 13.80Q83.49 14.85 83.49 16.20L83.49 16.20L83.49 18.47Q83.49 20.13 84.05 21.26Q84.60 22.39 85.60 22.95Q86.60 23.51 87.93 23.51L87.93 23.51Q88.84 23.51 89.57 23.26Q90.31 23.00 90.83 22.50Q91.35 21.99 91.62 21.26L91.62 21.26L96.27 22.13Q95.81 23.70 94.67 24.89Q93.52 26.08 91.80 26.73Q90.09 27.38 87.85 27.38ZM102.92 27L97.79 27L97.79 7.89L102.92 7.89L102.92 27ZM100.36 5.40L100.36 5.40Q99.19 5.40 98.37 4.63Q97.55 3.86 97.55 2.77L97.55 2.77Q97.55 1.67 98.37 0.90Q99.19 0.13 100.36 0.13L100.36 0.13Q101.52 0.13 102.35 0.90Q103.18 1.66 103.18 2.77L103.18 2.77Q103.18 3.86 102.35 4.63Q101.52 5.40 100.36 5.40ZM110.13 15.94L110.13 15.94L110.13 27L105.00 27L105.00 7.89L109.84 7.89L109.92 12.66L109.62 12.66Q110.37 10.27 111.90 8.96Q113.43 7.65 115.85 7.65L115.85 7.65Q117.84 7.65 119.31 8.52Q120.78 9.38 121.60 11.00Q122.42 12.61 122.42 14.85L122.42 14.85L122.42 27L117.29 27L117.29 15.74Q117.29 13.96 116.38 12.95Q115.46 11.94 113.84 11.94L113.84 11.94Q112.76 11.94 111.91 12.41Q111.07 12.88 110.60 13.77Q110.13 14.66 110.13 15.94ZM141.40 27L130.65 27L130.65 1.54L140.75 1.54Q143.55 1.54 145.42 2.38Q147.30 3.23 148.23 4.70Q149.16 6.17 149.16 8.08L149.16 8.08Q149.16 9.59 148.56 10.70Q147.96 11.82 146.93 12.53Q145.89 13.24 144.58 13.55L144.58 13.55L144.58 13.81Q146.01 13.86 147.29 14.62Q148.56 15.38 149.35 16.74Q150.15 18.10 150.15 19.99L150.15 19.99Q150.15 21.99 149.16 23.58Q148.17 25.17 146.23 26.09Q144.29 27 141.40 27L141.40 27ZM135.86 15.81L135.86 22.71L140.37 22.71Q142.66 22.71 143.72 21.82Q144.78 20.93 144.78 19.50L144.78 19.50Q144.78 18.40 144.26 17.57Q143.74 16.75 142.78 16.28Q141.83 15.81 140.51 15.81L140.51 15.81L135.86 15.81ZM135.86 5.79L135.86 12.23L139.98 12.23Q141.09 12.23 141.98 11.83Q142.87 11.43 143.37 10.69Q143.88 9.94 143.88 8.92L143.88 8.92Q143.88 7.53 142.89 6.66Q141.91 5.79 140.08 5.79L140.08 5.79L135.86 5.79ZM156.74 27.38L156.74 27.38Q154.93 27.38 153.49 26.74Q152.04 26.09 151.22 24.82Q150.39 23.55 150.39 21.65L150.39 21.65Q150.39 20.06 150.98 18.98Q151.57 17.91 152.58 17.26Q153.60 16.61 154.89 16.27Q156.18 15.93 157.60 15.79L157.60 15.79Q159.26 15.62 160.27 15.47Q161.29 15.33 161.76 15.01Q162.23 14.70 162.23 14.08L162.23 14.08L162.23 13.99Q162.23 13.17 161.89 12.61Q161.55 12.05 160.88 11.75Q160.21 11.45 159.24 11.45L159.24 11.45Q158.25 11.45 157.51 11.75Q156.78 12.05 156.32 12.54Q155.86 13.04 155.63 13.65L155.63 13.65L150.93 12.87Q151.43 11.21 152.57 10.05Q153.72 8.88 155.42 8.27Q157.12 7.65 159.24 7.65L159.24 7.65Q160.79 7.65 162.25 8.02Q163.70 8.39 164.85 9.16Q166.01 9.93 166.68 11.16Q167.36 12.39 167.36 14.13L167.36 14.13L167.36 27L162.50 27L162.50 24.35L162.33 24.35Q161.87 25.24 161.10 25.91Q160.33 26.59 159.25 26.98Q158.16 27.38 156.74 27.38ZM158.20 23.77L158.20 23.77Q159.41 23.77 160.32 23.29Q161.24 22.81 161.75 21.99Q162.26 21.17 162.26 20.16L162.26 20.16L162.26 18.10Q162.04 18.27 161.58 18.40Q161.12 18.54 160.56 18.64Q159.99 18.75 159.44 18.83Q158.90 18.92 158.47 18.97L158.47 18.97Q157.53 19.10 156.81 19.41Q156.09 19.72 155.70 20.22Q155.31 20.73 155.31 21.51L155.31 21.51Q155.31 22.25 155.68 22.75Q156.06 23.26 156.70 23.51Q157.34 23.77 158.20 23.77ZM174.58 15.94L174.58 15.94L174.58 27L169.46 27L169.46 7.89L174.29 7.89L174.38 12.66L174.07 12.66Q174.82 10.27 176.35 8.96Q177.88 7.65 180.31 7.65L180.31 7.65Q182.29 7.65 183.76 8.52Q185.23 9.38 186.05 11.00Q186.87 12.61 186.87 14.85L186.87 14.85L186.87 27L181.74 27L181.74 15.74Q181.74 13.96 180.83 12.95Q179.92 11.94 178.29 11.94L178.29 11.94Q177.22 11.94 176.37 12.41Q175.52 12.88 175.05 13.77Q174.58 14.66 174.58 15.94ZM197.11 17.48L193.62 21.41L193.62 15.24L194.39 15.24L200.64 7.89L206.57 7.89L198.32 17.48L197.11 17.48ZM194.10 27L188.97 27L188.97 1.54L194.10 1.54L194.10 27ZM206.93 27L200.90 27L195.16 18.63L198.59 14.99L206.93 27Z"/></g>
        
      </svg>
    