<svg width="238" height="41" viewBox="0 0 238 41" fill="none" xmlns="http://www.w3.org/2000/svg">
<path d="M221.594 0H213.594V12.0632C213.56 14.2434 211.782 16 209.594 16H197.594V24H206.28C208.402 24 210.437 23.1571 211.937 21.6569L219.251 14.3431C220.751 12.8429 221.594 10.808 221.594 8.68629V0Z" fill="url(#paint0_linear_736_316)"/>
<path d="M213.594 40H221.594V27.9368C221.627 25.7566 223.405 24 225.593 24H237.594V16H228.907C226.786 16 224.751 16.8429 223.251 18.3431L215.937 25.6569C214.437 27.1571 213.594 29.192 213.594 31.3137V40Z" fill="url(#paint1_linear_736_316)"/>
<path d="M12.12 14.9502C12.7467 14.9502 13.2833 15.1735 13.73 15.6202C14.17 16.0602 14.39 16.5969 14.39 17.2302C14.39 17.8569 14.17 18.3935 13.73 18.8402C13.2833 19.2802 12.7467 19.5002 12.12 19.5002C11.5133 19.5002 10.9867 19.2802 10.54 18.8402C10.1 18.3935 9.88 17.8569 9.88 17.2302C9.88 16.5969 10.1 16.0602 10.54 15.6202C10.9867 15.1735 11.5133 14.9502 12.12 14.9502ZM17.47 14.9502C18.0767 14.9502 18.6033 15.1735 19.05 15.6202C19.49 16.0602 19.71 16.5969 19.71 17.2302C19.71 17.8569 19.49 18.3935 19.05 18.8402C18.6033 19.2802 18.0767 19.5002 17.47 19.5002C16.8433 19.5002 16.3067 19.2802 15.86 18.8402C15.42 18.3935 15.2 17.8569 15.2 17.2302C15.2 16.5969 15.42 16.0602 15.86 15.6202C16.3067 15.1735 16.8433 14.9502 17.47 14.9502ZM25.24 15.9002H29.51V27.9102C29.51 28.1369 29.5 28.3102 29.48 28.4302H31.3V32.0002H30.11L28.78 30.5702H28.67C27.95 31.5235 26.97 32.0002 25.73 32.0002H6.13C4.63667 32.0002 3.34333 31.5235 2.25 30.5702C0.75 29.3302 0 27.7069 0 25.7002V20.1702L2.18 18.4202H4.28V25.7002C4.28 26.5202 4.56 27.1869 5.12 27.7002C5.65333 28.1869 6.27 28.4302 6.97 28.4302H24.26C24.5667 28.4302 24.8233 28.3235 25.03 28.1102C25.17 27.9302 25.24 27.7102 25.24 27.4502V15.9002ZM44.63 8.2002C45.2633 8.2002 45.8 8.4202 46.24 8.8602C46.6867 9.30686 46.91 9.84353 46.91 10.4702C46.91 11.0769 46.6867 11.6035 46.24 12.0502C45.8 12.4902 45.2633 12.7102 44.63 12.7102C44.0233 12.7102 43.5 12.4902 43.06 12.0502C42.6133 11.6035 42.39 11.0769 42.39 10.4702C42.39 9.84353 42.6133 9.30686 43.06 8.8602C43.5 8.4202 44.0233 8.2002 44.63 8.2002ZM31.05 28.4302H38.09C37.55 27.7502 37.13 26.9469 36.83 26.0202C36.57 25.1269 36.44 24.2369 36.44 23.3502C36.44 21.2969 37.0367 19.5835 38.23 18.2102C39.7433 16.3902 41.8767 15.4802 44.63 15.4802C46.59 15.4802 48.2233 16.0035 49.53 17.0502C50.9567 18.2702 51.67 19.9035 51.67 21.9502V28.1502C51.67 29.1102 51.3533 29.9602 50.72 30.7002C49.9733 31.5669 49.03 32.0002 47.89 32.0002H31.05V28.4302ZM47.4 27.5502V21.9502C47.4 20.9969 47.0733 20.2269 46.42 19.6402C45.9067 19.2469 45.31 19.0502 44.63 19.0502C43.1167 19.0502 42.02 19.6469 41.34 20.8402C40.9 21.5802 40.68 22.5235 40.68 23.6702C40.68 25.2369 41.17 26.4602 42.15 27.3402C42.9433 28.0669 43.98 28.4302 45.26 28.4302H46.52C47.1067 28.4302 47.4 28.1369 47.4 27.5502ZM66.37 32.0002H63.46C60.8933 32.0002 58.8767 31.1269 57.41 29.3802C56.17 27.8802 55.55 26.0335 55.55 23.8402C55.55 21.2269 56.2867 19.1869 57.76 17.7202C59.3 16.2269 61.27 15.4802 63.67 15.4802C65.4233 15.4802 66.94 15.9102 68.22 16.7702C69.9 17.9835 70.74 19.7102 70.74 21.9502V28.4302H71.86V32.0002H70.71C70.5433 34.5202 69.6567 36.4902 68.05 37.9102C66.93 38.9169 65.5867 39.6069 64.02 39.9802C62.9267 40.2402 61.8533 40.3702 60.8 40.3702C60.4533 40.3702 59.9533 40.3469 59.3 40.3002H59.19L57.41 38.0902V36.5502C58.3633 36.7169 59.26 36.8002 60.1 36.8002C63.9267 36.8002 66.0167 35.2002 66.37 32.0002ZM66.47 28.4302V21.9502C66.47 21.0169 66.1667 20.2835 65.56 19.7502C65.0267 19.2835 64.3967 19.0502 63.67 19.0502C62.4833 19.0502 61.54 19.4702 60.84 20.3102C60.14 21.1502 59.79 22.3035 59.79 23.7702C59.79 25.1969 60.1733 26.3302 60.94 27.1702C61.7133 28.0102 62.7633 28.4302 64.09 28.4302H66.47ZM104.48 15.9002H108.75V28.1502C108.75 29.2035 108.383 30.1069 107.65 30.8602C106.917 31.6202 106.023 32.0002 104.97 32.0002H97.62L96.33 30.5702H96.22C95.4533 31.5235 94.4733 32.0002 93.28 32.0002H85.93L84.6 30.5702H84.5C83.7267 31.5235 82.7467 32.0002 81.56 32.0002H71.62V28.4302H80.19C80.7767 28.4302 81.07 28.1369 81.07 27.5502V19.9202H85.34V26.9302C85.34 27.6035 85.3267 28.1035 85.3 28.4302H91.92C92.5 28.4302 92.79 28.1369 92.79 27.5502V17.8902H97.06V27.2402C97.06 27.3802 97.05 27.5902 97.03 27.8702C97.03 28.1235 97.03 28.3102 97.03 28.4302H103.61C104.19 28.4302 104.48 28.1369 104.48 27.5502V15.9002ZM122.54 19.0902V15.6902C123.333 15.5502 124.257 15.4802 125.31 15.4802C127.99 15.4802 130.16 16.3435 131.82 18.0702C133.287 19.6302 134.02 21.5669 134.02 23.8802V27.2402C134.02 27.7735 134.01 28.1702 133.99 28.4302H134.9V32.0002H134.44L133.29 30.5702H133.18C132.993 30.7769 132.797 30.9735 132.59 31.1602C131.89 31.7202 131.107 32.0002 130.24 32.0002H119.01V28.4302H128.88C129.46 28.4302 129.75 28.1369 129.75 27.5502V24.3002C129.75 22.6869 129.26 21.3902 128.28 20.4102C127.373 19.5035 126.057 19.0169 124.33 18.9502C123.537 18.9502 122.94 18.9969 122.54 19.0902ZM143.05 8.2002C143.683 8.2002 144.22 8.4202 144.66 8.8602C145.107 9.30686 145.33 9.84353 145.33 10.4702C145.33 11.0769 145.107 11.6035 144.66 12.0502C144.22 12.4902 143.683 12.7102 143.05 12.7102C142.443 12.7102 141.92 12.4902 141.48 12.0502C141.033 11.6035 140.81 11.0769 140.81 10.4702C140.81 9.84353 141.033 9.30686 141.48 8.8602C141.92 8.4202 142.443 8.2002 143.05 8.2002ZM140.95 15.9002H145.19V27.9102V28.4302H146.97V32.0002H145.75L144.45 30.5702H144.38C143.587 31.5235 142.597 32.0002 141.41 32.0002H134.65V28.4302H139.94C140.267 28.4302 140.5 28.3369 140.64 28.1502C140.847 27.9635 140.95 27.7302 140.95 27.4502V15.9002ZM179.59 15.9002H183.86V28.1502C183.86 29.2035 183.493 30.1069 182.76 30.8602C182.02 31.6202 181.127 32.0002 180.08 32.0002H172.73L171.44 30.5702H171.33C170.563 31.5235 169.583 32.0002 168.39 32.0002H161.04L159.71 30.5702H159.61C158.837 31.5235 157.857 32.0002 156.67 32.0002H146.73V28.4302H155.3C155.887 28.4302 156.18 28.1369 156.18 27.5502V19.9202H160.45V26.9302C160.45 27.6035 160.437 28.1035 160.41 28.4302H167.03C167.61 28.4302 167.9 28.1369 167.9 27.5502V17.8902H172.17V27.2402C172.17 27.3802 172.16 27.5902 172.14 27.8702C172.14 28.1235 172.14 28.3102 172.14 28.4302H178.72C179.3 28.4302 179.59 28.1369 179.59 27.5502V15.9002Z" fill="white"/>
<defs>
<linearGradient id="paint0_linear_736_316" x1="217.594" y1="-0.997096" x2="217.594" y2="33.7931" gradientUnits="userSpaceOnUse">
<stop stop-color="#2CBFAE"/>
<stop offset="1" stop-color="#0F8577"/>
</linearGradient>
<linearGradient id="paint1_linear_736_316" x1="217.594" y1="-0.997096" x2="217.594" y2="33.7931" gradientUnits="userSpaceOnUse">
<stop stop-color="#2CBFAE"/>
<stop offset="1" stop-color="#0F8577"/>
</linearGradient>
</defs>
</svg>
