<svg data-logo="logo" xmlns="http://www.w3.org/2000/svg" viewBox="0 0 213 42">
        <g id="logogram" transform="translate(0, 1) rotate(0)"><path d="M24 0H16V12.0632C15.9663 14.2434 14.1885 16 12.0005 16H0V24H8.68629C10.808 24 12.8429 23.1571 14.3431 21.6569L21.6569 14.3431C23.1571 12.8429 24 10.808 24 8.68629V0Z" fill="url(#paint0_linear_7697_8782)"></path><path d="M16 40H24V27.9368C24.0337 25.7566 25.8115 24 27.9995 24H40V16H31.3137C29.192 16 27.1571 16.8429 25.6569 18.3431L18.3431 25.6569C16.8429 27.1571 16 29.192 16 31.3137V40Z" fill="url(#paint1_linear_7697_8782)"></path></g>
        <g id="logotype" transform="translate(46, 7.5)"><path fill="#ffffff" d="M17.64 27.38L17.64 27.38Q14.58 27.38 12.31 26.44Q10.05 25.50 8.79 23.65Q7.52 21.80 7.45 19.10L7.45 19.10L12.53 19.10Q12.63 20.39 13.30 21.25Q13.96 22.11 15.07 22.54Q16.19 22.97 17.59 22.97L17.59 22.97Q18.99 22.97 20.02 22.57Q21.06 22.16 21.64 21.43Q22.22 20.69 22.22 19.72L22.22 19.72Q22.22 18.85 21.70 18.26Q21.18 17.67 20.20 17.24Q19.23 16.81 17.83 16.49L17.83 16.49L15.02 15.79Q11.79 15.00 9.96 13.32Q8.14 11.64 8.14 8.87L8.14 8.87Q8.14 6.56 9.38 4.83Q10.61 3.11 12.78 2.15Q14.94 1.19 17.71 1.19L17.71 1.19Q20.53 1.19 22.63 2.16Q24.73 3.13 25.91 4.84Q27.09 6.56 27.12 8.80L27.12 8.80L22.08 8.80Q21.94 7.26 20.77 6.42Q19.60 5.59 17.66 5.59L17.66 5.59Q16.34 5.59 15.40 5.96Q14.46 6.34 13.96 7.00Q13.47 7.67 13.47 8.53L13.47 8.53Q13.47 9.47 14.04 10.09Q14.61 10.71 15.54 11.10Q16.48 11.48 17.55 11.74L17.55 11.74L19.86 12.30Q21.47 12.66 22.85 13.28Q24.23 13.89 25.28 14.79Q26.32 15.69 26.89 16.92Q27.46 18.15 27.46 19.75L27.46 19.75Q27.46 22.06 26.30 23.78Q25.14 25.50 22.94 26.44Q20.73 27.38 17.64 27.38ZM34.16 27.38L34.16 27.38Q32.35 27.38 30.91 26.74Q29.46 26.09 28.63 24.82Q27.80 23.55 27.80 21.65L27.80 21.65Q27.80 20.06 28.39 18.98Q28.98 17.91 30.00 17.26Q31.02 16.61 32.31 16.27Q33.60 15.93 35.02 15.79L35.02 15.79Q36.67 15.62 37.69 15.47Q38.71 15.33 39.18 15.01Q39.65 14.70 39.65 14.08L39.65 14.08L39.65 13.99Q39.65 13.17 39.31 12.61Q38.96 12.05 38.30 11.75Q37.63 11.45 36.66 11.45L36.66 11.45Q35.67 11.45 34.93 11.75Q34.20 12.05 33.73 12.54Q33.27 13.04 33.05 13.65L33.05 13.65L28.35 12.87Q28.85 11.21 29.99 10.05Q31.14 8.88 32.84 8.27Q34.54 7.65 36.66 7.65L36.66 7.65Q38.21 7.65 39.66 8.02Q41.12 8.39 42.27 9.16Q43.42 9.93 44.10 11.16Q44.77 12.39 44.77 14.13L44.77 14.13L44.77 27L39.92 27L39.92 24.35L39.75 24.35Q39.29 25.24 38.52 25.91Q37.75 26.59 36.67 26.98Q35.58 27.38 34.16 27.38ZM35.61 23.77L35.61 23.77Q36.83 23.77 37.74 23.29Q38.66 22.81 39.17 21.99Q39.68 21.17 39.68 20.16L39.68 20.16L39.68 18.10Q39.46 18.27 39.00 18.40Q38.54 18.54 37.97 18.64Q37.41 18.75 36.86 18.83Q36.32 18.92 35.89 18.97L35.89 18.97Q34.95 19.10 34.23 19.41Q33.51 19.72 33.12 20.22Q32.73 20.73 32.73 21.51L32.73 21.51Q32.73 22.25 33.10 22.75Q33.48 23.26 34.12 23.51Q34.76 23.77 35.61 23.77ZM52.00 15.94L52.00 15.94L52.00 27L46.87 27L46.87 7.89L51.71 7.89L51.80 12.66L51.49 12.66Q52.24 10.27 53.77 8.96Q55.30 7.65 57.73 7.65L57.73 7.65Q59.71 7.65 61.18 8.52Q62.65 9.38 63.47 11.00Q64.29 12.61 64.29 14.85L64.29 14.85L64.29 27L59.16 27L59.16 15.74Q59.16 13.96 58.25 12.95Q57.33 11.94 55.71 11.94L55.71 11.94Q54.63 11.94 53.79 12.41Q52.94 12.88 52.47 13.77Q52.00 14.66 52.00 15.94ZM71.72 27.38L71.72 27.38Q69.91 27.38 68.47 26.74Q67.02 26.09 66.19 24.82Q65.36 23.55 65.36 21.65L65.36 21.65Q65.36 20.06 65.95 18.98Q66.54 17.91 67.56 17.26Q68.58 16.61 69.87 16.27Q71.16 15.93 72.58 15.79L72.58 15.79Q74.23 15.62 75.25 15.47Q76.27 15.33 76.74 15.01Q77.21 14.70 77.21 14.08L77.21 14.08L77.21 13.99Q77.21 13.17 76.87 12.61Q76.52 12.05 75.86 11.75Q75.19 11.45 74.22 11.45L74.22 11.45Q73.23 11.45 72.49 11.75Q71.76 12.05 71.29 12.54Q70.83 13.04 70.61 13.65L70.61 13.65L65.91 12.87Q66.41 11.21 67.55 10.05Q68.70 8.88 70.40 8.27Q72.10 7.65 74.22 7.65L74.22 7.65Q75.77 7.65 77.22 8.02Q78.68 8.39 79.83 9.16Q80.98 9.93 81.66 11.16Q82.33 12.39 82.33 14.13L82.33 14.13L82.33 27L77.48 27L77.48 24.35L77.31 24.35Q76.85 25.24 76.08 25.91Q75.31 26.59 74.23 26.98Q73.14 27.38 71.72 27.38ZM73.17 23.77L73.17 23.77Q74.39 23.77 75.30 23.29Q76.22 22.81 76.73 21.99Q77.24 21.17 77.24 20.16L77.24 20.16L77.24 18.10Q77.02 18.27 76.56 18.40Q76.10 18.54 75.53 18.64Q74.97 18.75 74.42 18.83Q73.87 18.92 73.45 18.97L73.45 18.97Q72.51 19.10 71.79 19.41Q71.07 19.72 70.68 20.22Q70.29 20.73 70.29 21.51L70.29 21.51Q70.29 22.25 70.66 22.75Q71.04 23.26 71.68 23.51Q72.32 23.77 73.17 23.77ZM91.42 27.32L91.42 27.32Q89.22 27.32 87.45 26.19Q85.68 25.05 84.66 22.86Q83.63 20.66 83.63 17.48L83.63 17.48Q83.63 14.22 84.69 12.03Q85.75 9.84 87.51 8.75Q89.27 7.65 91.39 7.65L91.39 7.65Q93.01 7.65 94.09 8.20Q95.17 8.75 95.83 9.55Q96.50 10.35 96.82 11.11L96.82 11.11L97.00 11.11L97.00 1.54L102.12 1.54L102.12 27L97.08 27L97.08 23.94L96.82 23.94Q96.48 24.71 95.81 25.49Q95.13 26.27 94.06 26.79Q92.98 27.32 91.42 27.32ZM93.00 23.21L93.00 23.21Q94.30 23.21 95.22 22.49Q96.14 21.77 96.62 20.48Q97.10 19.19 97.10 17.46L97.10 17.46Q97.10 15.72 96.63 14.45Q96.16 13.17 95.23 12.47Q94.31 11.76 93.00 11.76L93.00 11.76Q91.65 11.76 90.73 12.49Q89.82 13.23 89.36 14.51Q88.89 15.79 88.89 17.46L88.89 17.46Q88.89 19.14 89.36 20.44Q89.83 21.74 90.75 22.47Q91.66 23.21 93.00 23.21ZM113.67 27.38L113.67 27.38Q110.61 27.38 108.35 26.44Q106.08 25.50 104.82 23.65Q103.56 21.80 103.49 19.10L103.49 19.10L108.56 19.10Q108.67 20.39 109.33 21.25Q110.00 22.11 111.11 22.54Q112.22 22.97 113.62 22.97L113.62 22.97Q115.02 22.97 116.06 22.57Q117.09 22.16 117.67 21.43Q118.25 20.69 118.25 19.72L118.25 19.72Q118.25 18.85 117.73 18.26Q117.21 17.67 116.24 17.24Q115.26 16.81 113.86 16.49L113.86 16.49L111.06 15.79Q107.83 15.00 106.00 13.32Q104.17 11.64 104.17 8.87L104.17 8.87Q104.17 6.56 105.41 4.83Q106.65 3.11 108.81 2.15Q110.97 1.19 113.74 1.19L113.74 1.19Q116.56 1.19 118.66 2.16Q120.77 3.13 121.94 4.84Q123.12 6.56 123.16 8.80L123.16 8.80L118.12 8.80Q117.98 7.26 116.81 6.42Q115.64 5.59 113.69 5.59L113.69 5.59Q112.37 5.59 111.43 5.96Q110.49 6.34 110.00 7.00Q109.50 7.67 109.50 8.53L109.50 8.53Q109.50 9.47 110.08 10.09Q110.65 10.71 111.58 11.10Q112.51 11.48 113.59 11.74L113.59 11.74L115.89 12.30Q117.50 12.66 118.89 13.28Q120.27 13.89 121.31 14.79Q122.35 15.69 122.93 16.92Q123.50 18.15 123.50 19.75L123.50 19.75Q123.50 22.06 122.34 23.78Q121.18 25.50 118.97 26.44Q116.77 27.38 113.67 27.38ZM133.41 27.38L133.41 27.38Q130.54 27.38 128.44 26.14Q126.33 24.90 125.20 22.68Q124.06 20.47 124.06 17.53L124.06 17.53Q124.06 14.56 125.20 12.35Q126.33 10.13 128.44 8.89Q130.54 7.65 133.41 7.65L133.41 7.65Q136.30 7.65 138.39 8.89Q140.48 10.13 141.62 12.35Q142.76 14.56 142.76 17.53L142.76 17.53Q142.76 20.47 141.62 22.68Q140.48 24.90 138.39 26.14Q136.30 27.38 133.41 27.38ZM133.41 23.34L133.41 23.34Q134.78 23.34 135.70 22.58Q136.62 21.82 137.08 20.50Q137.55 19.17 137.55 17.52L137.55 17.52Q137.55 15.82 137.08 14.51Q136.62 13.19 135.70 12.44Q134.78 11.69 133.41 11.69L133.41 11.69Q132.04 11.69 131.13 12.44Q130.21 13.19 129.75 14.51Q129.29 15.82 129.29 17.52L129.29 17.52Q129.29 19.17 129.75 20.50Q130.21 21.82 131.13 22.58Q132.04 23.34 133.41 23.34ZM142.21 7.89L154.68 7.89L154.68 11.81L142.21 11.81L142.21 7.89ZM150.69 27L145.58 27L145.58 6.42Q145.58 4.39 146.39 3.04Q147.20 1.69 148.60 1.01Q150.00 0.34 151.78 0.34L151.78 0.34Q152.99 0.34 153.99 0.54Q154.99 0.73 155.45 0.87L155.45 0.87L154.53 4.73Q154.21 4.65 153.77 4.56Q153.33 4.48 152.82 4.48L152.82 4.48Q151.66 4.48 151.17 5.03Q150.69 5.59 150.69 6.59L150.69 6.59L150.69 27ZM153.86 7.89L165.19 7.89L165.19 11.81L153.86 11.81L153.86 7.89ZM156.49 21.86L156.49 3.35L161.62 3.35L161.62 21.41Q161.62 22.32 162.02 22.75Q162.42 23.19 163.36 23.19L163.36 23.19Q163.65 23.19 164.18 23.11Q164.71 23.04 164.99 22.97L164.99 22.97L165.72 26.81Q164.87 27.07 164.02 27.17Q163.18 27.27 162.41 27.27L162.41 27.27Q159.54 27.27 158.01 25.87Q156.49 24.47 156.49 21.86L156.49 21.86Z"></path></g>
        <defs xmlns="http://www.w3.org/2000/svg">
<linearGradient id="paint0_linear_7697_8782" x1="20" y1="-0.997096" x2="20" y2="33.7931" gradientUnits="userSpaceOnUse">
<stop stop-color="#2CBFAE"></stop>
<stop offset="1" stop-color="#0F8577"></stop>
</linearGradient>
<linearGradient id="paint1_linear_7697_8782" x1="20" y1="-0.997096" x2="20" y2="33.7931" gradientUnits="userSpaceOnUse">
<stop stop-color="#2CBFAE"></stop>
<stop offset="1" stop-color="#0F8577"></stop>
</linearGradient>
</defs>
      </svg>