<svg viewBox="0 0 190 42" xmlns="http://www.w3.org/2000/svg" data-logo="logo">
        <g transform="translate(0, 1) rotate(0)" id="logogram" style="opacity: 1;"><path fill="#2CBFAEF2" d="M30 28V12C30 10.8954 29.1046 10 28 10H27.8994C27.369 10 26.8604 10.2109 26.4854 10.5859L10.5859 26.4854C10.2109 26.8604 10 27.369 10 27.8994V40H0V27.8994C2.15312e-05 24.7168 1.26423 21.6645 3.51465 19.4141L19.4141 3.51465C21.6645 1.26423 24.7168 2.1373e-05 27.8994 0H28C34.6274 0 40 5.37258 40 12V28C40 34.6274 34.6274 40 28 40H14V30H28C29.1046 30 30 29.1046 30 28Z M0 0H17L7 10H0V0Z"></path></g>
        <g transform="translate(46, 1)" id="logotype" style="opacity: 1;"><path d="M17.64 33.38L17.64 33.38Q14.58 33.38 12.31 32.44Q10.05 31.50 8.79 29.65Q7.52 27.80 7.45 25.10L7.45 25.10L12.53 25.10Q12.63 26.39 13.30 27.25Q13.96 28.11 15.07 28.54Q16.19 28.97 17.59 28.97L17.59 28.97Q18.99 28.97 20.02 28.57Q21.06 28.16 21.64 27.43Q22.22 26.69 22.22 25.72L22.22 25.72Q22.22 24.85 21.70 24.26Q21.18 23.67 20.20 23.24Q19.23 22.81 17.83 22.49L17.83 22.49L15.02 21.79Q11.79 21.00 9.96 19.32Q8.14 17.64 8.14 14.87L8.14 14.87Q8.14 12.56 9.38 10.83Q10.61 9.11 12.78 8.15Q14.94 7.19 17.71 7.19L17.71 7.19Q20.53 7.19 22.63 8.16Q24.73 9.13 25.91 10.84Q27.09 12.56 27.12 14.80L27.12 14.80L22.08 14.80Q21.94 13.26 20.77 12.42Q19.60 11.59 17.66 11.59L17.66 11.59Q16.34 11.59 15.40 11.96Q14.46 12.34 13.96 13.00Q13.47 13.67 13.47 14.53L13.47 14.53Q13.47 15.47 14.04 16.09Q14.61 16.71 15.54 17.10Q16.48 17.48 17.55 17.74L17.55 17.74L19.86 18.30Q21.47 18.66 22.85 19.28Q24.23 19.89 25.28 20.79Q26.32 21.69 26.89 22.92Q27.46 24.15 27.46 25.75L27.46 25.75Q27.46 28.06 26.30 29.78Q25.14 31.50 22.94 32.44Q20.73 33.38 17.64 33.38ZM34.16 33.38L34.16 33.38Q32.35 33.38 30.91 32.74Q29.46 32.09 28.63 30.82Q27.80 29.55 27.80 27.65L27.80 27.65Q27.80 26.06 28.39 24.98Q28.98 23.91 30.00 23.26Q31.02 22.61 32.31 22.27Q33.60 21.93 35.02 21.79L35.02 21.79Q36.67 21.62 37.69 21.47Q38.71 21.33 39.18 21.01Q39.65 20.70 39.65 20.08L39.65 20.08L39.65 19.99Q39.65 19.17 39.31 18.61Q38.96 18.05 38.30 17.75Q37.63 17.45 36.66 17.45L36.66 17.45Q35.67 17.45 34.93 17.75Q34.20 18.05 33.73 18.54Q33.27 19.04 33.05 19.65L33.05 19.65L28.35 18.87Q28.85 17.21 29.99 16.05Q31.14 14.88 32.84 14.27Q34.54 13.65 36.66 13.65L36.66 13.65Q38.21 13.65 39.66 14.02Q41.12 14.39 42.27 15.16Q43.42 15.93 44.10 17.16Q44.77 18.39 44.77 20.13L44.77 20.13L44.77 33L39.92 33L39.92 30.35L39.75 30.35Q39.29 31.24 38.52 31.91Q37.75 32.59 36.67 32.98Q35.58 33.38 34.16 33.38ZM35.61 29.77L35.61 29.77Q36.83 29.77 37.74 29.29Q38.66 28.81 39.17 27.99Q39.68 27.17 39.68 26.16L39.68 26.16L39.68 24.10Q39.46 24.27 39.00 24.40Q38.54 24.54 37.97 24.64Q37.41 24.75 36.86 24.83Q36.32 24.92 35.89 24.97L35.89 24.97Q34.95 25.10 34.23 25.41Q33.51 25.72 33.12 26.22Q32.73 26.73 32.73 27.51L32.73 27.51Q32.73 28.25 33.10 28.75Q33.48 29.26 34.12 29.51Q34.76 29.77 35.61 29.77ZM52.00 21.94L52.00 21.94L52.00 33L46.87 33L46.87 13.89L51.71 13.89L51.80 18.66L51.49 18.66Q52.24 16.27 53.77 14.96Q55.30 13.65 57.73 13.65L57.73 13.65Q59.71 13.65 61.18 14.52Q62.65 15.38 63.47 17.00Q64.29 18.61 64.29 20.85L64.29 20.85L64.29 33L59.16 33L59.16 21.74Q59.16 19.96 58.25 18.95Q57.33 17.94 55.71 17.94L55.71 17.94Q54.63 17.94 53.79 18.41Q52.94 18.88 52.47 19.77Q52.00 20.66 52.00 21.94ZM73.38 33.32L73.38 33.32Q71.17 33.32 69.41 32.19Q67.64 31.05 66.61 28.86Q65.59 26.66 65.59 23.48L65.59 23.48Q65.59 20.22 66.65 18.03Q67.71 15.84 69.47 14.75Q71.23 13.65 73.34 13.65L73.34 13.65Q74.97 13.65 76.05 14.20Q77.12 14.75 77.79 15.55Q78.45 16.35 78.78 17.11L78.78 17.11L78.95 17.11L78.95 7.54L84.08 7.54L84.08 33L79.04 33L79.04 29.94L78.78 29.94Q78.44 30.71 77.76 31.49Q77.09 32.27 76.01 32.79Q74.93 33.32 73.38 33.32ZM74.95 29.21L74.95 29.21Q76.25 29.21 77.17 28.49Q78.10 27.77 78.57 26.48Q79.05 25.19 79.05 23.46L79.05 23.46Q79.05 21.72 78.58 20.45Q78.11 19.17 77.19 18.47Q76.27 17.76 74.95 17.76L74.95 17.76Q73.60 17.76 72.69 18.49Q71.77 19.23 71.31 20.51Q70.85 21.79 70.85 23.46L70.85 23.46Q70.85 25.14 71.32 26.44Q71.79 27.74 72.70 28.47Q73.62 29.21 74.95 29.21ZM91.51 33L86.30 33L86.30 7.54L96.23 7.54Q99.13 7.54 101.17 8.64Q103.20 9.74 104.27 11.68Q105.34 13.62 105.34 16.13L105.34 16.13Q105.34 18.66 104.25 20.58Q103.16 22.51 101.11 23.59Q99.05 24.68 96.11 24.68L96.11 24.68L89.71 24.68L89.71 20.47L95.27 20.47Q96.88 20.47 97.91 19.92Q98.94 19.36 99.45 18.39Q99.95 17.41 99.95 16.13L99.95 16.13Q99.95 14.85 99.45 13.88Q98.94 12.90 97.90 12.37Q96.86 11.84 95.25 11.84L95.25 11.84L91.51 11.84L91.51 33ZM111.91 33.38L111.91 33.38Q110.10 33.38 108.66 32.74Q107.21 32.09 106.38 30.82Q105.56 29.55 105.56 27.65L105.56 27.65Q105.56 26.06 106.14 24.98Q106.73 23.91 107.75 23.26Q108.77 22.61 110.06 22.27Q111.35 21.93 112.77 21.79L112.77 21.79Q114.42 21.62 115.44 21.47Q116.46 21.33 116.93 21.01Q117.40 20.70 117.40 20.08L117.40 20.08L117.40 19.99Q117.40 19.17 117.06 18.61Q116.71 18.05 116.05 17.75Q115.38 17.45 114.41 17.45L114.41 17.45Q113.42 17.45 112.68 17.75Q111.95 18.05 111.49 18.54Q111.02 19.04 110.80 19.65L110.80 19.65L106.10 18.87Q106.60 17.21 107.74 16.05Q108.89 14.88 110.59 14.27Q112.29 13.65 114.41 13.65L114.41 13.65Q115.96 13.65 117.42 14.02Q118.87 14.39 120.02 15.16Q121.18 15.93 121.85 17.16Q122.53 18.39 122.53 20.13L122.53 20.13L122.53 33L117.67 33L117.67 30.35L117.50 30.35Q117.04 31.24 116.27 31.91Q115.50 32.59 114.42 32.98Q113.33 33.38 111.91 33.38ZM113.37 29.77L113.37 29.77Q114.58 29.77 115.49 29.29Q116.41 28.81 116.92 27.99Q117.43 27.17 117.43 26.16L117.43 26.16L117.43 24.10Q117.21 24.27 116.75 24.40Q116.29 24.54 115.72 24.64Q115.16 24.75 114.61 24.83Q114.07 24.92 113.64 24.97L113.64 24.97Q112.70 25.10 111.98 25.41Q111.26 25.72 110.87 26.22Q110.48 26.73 110.48 27.51L110.48 27.51Q110.48 28.25 110.85 28.75Q111.23 29.26 111.87 29.51Q112.51 29.77 113.37 29.77ZM124.49 39.77L124.49 39.77L125.67 35.91L126.30 36.06Q127.33 36.33 128.13 36.21Q128.93 36.09 129.42 35.56Q129.91 35.03 130.01 34.08L130.01 34.08L130.15 33.05L122.97 13.89L128.42 13.89L131.63 23.81Q132.21 25.69 132.58 27.57Q132.95 29.45 133.43 31.50L133.43 31.50L132.23 31.50Q132.69 29.45 133.15 27.56Q133.61 25.67 134.23 23.81L134.23 23.81L137.58 13.89L142.96 13.89L134.85 35.26Q134.26 36.79 133.36 37.92Q132.45 39.05 131.10 39.67Q129.75 40.28 127.84 40.28L127.84 40.28Q126.81 40.28 125.92 40.14Q125.04 39.99 124.49 39.77Z" fill="#ffffff"></path></g>
        
      </svg>